<svg width="667" height="667" viewBox="0 0 667 667" fill="none" xmlns="http://www.w3.org/2000/svg">
<path d="M590.128 256.903C610.37 325.038 602.717 398.423 568.852 460.915C534.987 523.407 477.684 569.887 409.55 590.129L363.77 436.039C391.038 427.938 413.97 409.337 427.523 384.327C441.076 359.318 444.139 329.95 436.038 302.682L590.128 256.903Z" fill="#70AD47"/>
<path d="M585.602 243.052C568.796 196.011 539.176 154.603 500.086 123.501C460.996 92.3992 413.992 72.8417 364.377 67.0353C314.762 61.229 264.512 69.4049 219.297 90.6405C174.082 111.876 135.702 145.326 108.488 187.216C81.2737 229.105 66.309 277.767 65.2822 327.71C64.2555 377.653 77.2076 426.889 102.677 469.862C128.146 512.835 165.119 547.834 209.423 570.91C253.727 593.986 303.599 604.22 353.41 600.458L341.29 439.988C321.389 441.491 301.464 437.402 283.763 428.183C266.062 418.963 251.291 404.98 241.115 387.811C230.939 370.643 225.765 350.972 226.175 331.018C226.585 311.064 232.564 291.623 243.437 274.887C254.309 258.15 269.643 244.786 287.708 236.302C305.772 227.818 325.849 224.551 345.671 226.871C365.494 229.191 384.273 237.005 399.891 249.431C415.509 261.857 427.342 278.4 434.057 297.195L585.602 243.052Z" fill="#ED7D31"/>
<path d="M365.046 599.326C375.935 598.024 386.733 596.055 397.38 593.43L358.903 437.368C354.642 438.419 350.32 439.207 345.962 439.728L365.046 599.326Z" fill="#FFC000"/>
</svg>
