<svg width="112" height="112" viewBox="0 0 112 112" fill="none" xmlns="http://www.w3.org/2000/svg">
<path d="M55.9167 108.833C62.8671 108.842 69.7506 107.477 76.1719 104.817C82.5932 102.157 88.4256 98.2549 93.3341 93.3341C98.2549 88.4256 102.157 82.5932 104.817 76.1719C107.477 69.7506 108.842 62.8671 108.833 55.9167C108.842 48.9663 107.477 42.0828 104.817 35.6615C102.157 29.2402 98.2549 23.4078 93.3341 18.4993C88.4256 13.5785 82.5932 9.67606 76.1719 7.01619C69.7506 4.35632 62.8671 2.99147 55.9167 3.00004C48.9663 2.99147 42.0828 4.35632 35.6615 7.01619C29.2402 9.67606 23.4078 13.5785 18.4993 18.4993C13.5785 23.4078 9.67606 29.2402 7.01619 35.6615C4.35632 42.0828 2.99147 48.9663 3.00004 55.9167C2.99147 62.8671 4.35632 69.7506 7.01619 76.1719C9.67606 82.5932 13.5785 88.4256 18.4993 93.3341C23.4078 98.2549 29.2402 102.157 35.6615 104.817C42.0828 107.477 48.9663 108.842 55.9167 108.833Z" stroke="#FF9D00" stroke-width="6" stroke-linejoin="round"/>
<path d="M34.75 55.918L50.625 71.793L82.375 40.043" stroke="#FF9D00" stroke-width="6" stroke-linecap="round" stroke-linejoin="round"/>
</svg>
