<svg width="159" height="159" viewBox="0 0 159 159" fill="none" xmlns="http://www.w3.org/2000/svg">
<path d="M105.596 41.4456C105.595 45.4169 104.024 49.2268 101.227 52.045C94.7851 58.5392 88.5351 65.3106 81.8494 71.5672C81.103 72.2472 80.124 72.6147 79.1145 72.5939C78.105 72.573 77.142 72.1653 76.4244 71.4551L57.1661 52.0516C54.3651 49.2324 52.793 45.4197 52.793 41.4456C52.793 37.4716 54.3651 33.6589 57.1661 30.8397C58.563 29.4325 60.2245 28.3157 62.055 27.5535C63.8854 26.7914 65.8486 26.399 67.8314 26.399C69.8142 26.399 71.7774 26.7914 73.6078 27.5535C75.4383 28.3157 77.0998 29.4325 78.4967 30.8397L79.1963 31.5459L79.8959 30.8397C81.9926 28.7203 84.6727 27.2727 87.5948 26.6813C90.5169 26.0899 93.5488 26.3814 96.3047 27.5188C99.0606 28.6561 101.416 30.5877 103.07 33.0678C104.725 35.548 105.604 38.4643 105.596 41.4456Z" stroke="white" stroke-width="9.89974" stroke-linejoin="round"/>
<path d="M118.796 131.997L144.034 106.759C144.776 106.017 145.194 105.01 145.195 103.96V69.2982C145.195 66.6726 144.152 64.1546 142.296 62.298C140.439 60.4414 137.921 59.3984 135.295 59.3984C132.67 59.3984 130.152 60.4414 128.295 62.298C126.439 64.1546 125.396 66.6726 125.396 69.2982V98.9974" stroke="white" stroke-width="9.89974" stroke-linecap="round" stroke-linejoin="round"/>
<path d="M118.795 105.597L124.458 99.9346C124.757 99.6384 124.994 99.2856 125.154 98.897C125.315 98.5083 125.397 98.0915 125.395 97.6708C125.391 97.0782 125.223 96.4981 124.911 95.9942C124.599 95.4902 124.155 95.0816 123.627 94.8131L120.703 93.3546C118.226 92.1161 115.422 91.688 112.688 92.131C109.955 92.574 107.43 93.8655 105.47 95.8229L99.5636 101.73C97.088 104.205 95.6968 107.561 95.6961 111.062V131.997M39.5976 131.997L14.3598 106.759C13.617 106.017 13.1992 105.01 13.1982 103.96V69.2982C13.1982 66.6726 14.2412 64.1546 16.0978 62.298C17.9544 60.4414 20.4724 59.3984 23.098 59.3984C25.7236 59.3984 28.2416 60.4414 30.0982 62.298C31.9547 64.1546 32.9977 66.6726 32.9977 69.2982V98.9974" stroke="white" stroke-width="9.89974" stroke-linecap="round" stroke-linejoin="round"/>
<path d="M39.5979 105.593L33.9352 99.9306C33.3439 99.3242 33.0084 98.5137 32.998 97.6669C32.998 96.4591 33.6844 95.3569 34.7668 94.8091L37.6905 93.3506C40.1675 92.1121 42.9713 91.684 45.705 92.127C48.4387 92.57 50.9638 93.8616 52.9229 95.8189L58.8298 101.726C61.3054 104.201 62.6965 107.557 62.6973 111.058V131.993" stroke="white" stroke-width="9.89974" stroke-linecap="round" stroke-linejoin="round"/>
</svg>
