<svg width="149" height="137" viewBox="0 0 149 137" fill="none" xmlns="http://www.w3.org/2000/svg">
<path d="M116.724 33.1533L98.5433 6.89053C97.1957 4.9481 95.4047 3.35476 93.3186 2.24254C91.2325 1.13033 88.9113 0.53126 86.5475 0.494987L52.0448 0H51.9736C34.1606 0 20.4934 2.97951 11.691 17.5207C3.49585 31.0561 0 54.1129 0 94.6152V99.5651H11.3095L4.02919 136.689H14.1176L21.398 99.5651H24.7494C32.8336 99.6373 40.6219 96.5268 46.4323 90.9053C51.685 85.8793 55.4738 79.0033 57.3897 71.0211L57.407 70.9493L65.897 30.2669H55.7838L47.7468 68.7794C45.299 78.8895 37.9797 89.6654 24.7494 89.6654H9.9183C10.1871 54.6246 13.3776 33.8497 20.1599 22.646C25.8522 13.2412 34.1727 9.90284 51.9393 9.8982L86.4052 10.3932C87.1932 10.4053 87.9669 10.605 88.6623 10.9757C89.3576 11.3464 89.9546 11.8776 90.4038 12.525L110.97 42.2301L138.596 46.8348V52.0813L133.989 76.6515C132.63 83.9034 130.305 87.5564 120.774 88.7014L81.6988 95.3865L81.4405 136.689H91.3403L91.5466 103.744L122.081 98.5154C128.999 97.665 134.102 95.4357 137.681 91.7022C140.741 88.5102 142.603 84.4321 143.72 78.4762L148.496 53.0014V38.4484L116.724 33.1533Z" fill="white"/>
</svg>
