<svg width="32" height="32" viewBox="0 0 32 32" fill="none" xmlns="http://www.w3.org/2000/svg">
<path fill-rule="evenodd" clip-rule="evenodd" d="M23.2556 31.6151C20.9756 31.5312 14.514 30.6382 7.74684 23.8726C0.981259 17.1055 0.0898415 10.6455 0.0043415 8.36387C-0.122325 4.88687 2.54084 1.50962 5.61726 0.190703C5.98772 0.0307341 6.39341 -0.030171 6.79452 0.0139644C7.19562 0.0580998 7.57836 0.205759 7.90518 0.442453C10.4385 2.28862 12.1865 5.08162 13.6875 7.2777C14.0178 7.76019 14.159 8.34732 14.0842 8.92721C14.0095 9.50711 13.724 10.0392 13.2822 10.4222L10.1931 12.7165C10.0438 12.8242 9.9388 12.9825 9.89745 13.1619C9.8561 13.3413 9.88126 13.5296 9.96826 13.6918C10.6681 14.9632 11.9126 16.8569 13.3376 18.2819C14.7626 19.7069 16.7465 21.0337 18.1066 21.8127C18.2771 21.9084 18.4778 21.9352 18.6675 21.8875C18.8571 21.8398 19.0213 21.7212 19.1263 21.5562L21.1371 18.4956C21.5068 18.0045 22.0521 17.6756 22.659 17.5776C23.2658 17.4796 23.887 17.6202 24.3924 17.97C26.6202 19.5121 29.22 21.23 31.1232 23.6668C31.3791 23.996 31.5419 24.3878 31.5945 24.8015C31.6472 25.2151 31.5877 25.6352 31.4224 26.018C30.0972 29.1103 26.7437 31.7434 23.2556 31.6151Z" fill="#FF9D00"/>
</svg>
