<svg width="32" height="31" viewBox="0 0 32 31" fill="none" xmlns="http://www.w3.org/2000/svg">
<path d="M15.8333 0C24.5781 0 31.6667 6.90204 31.6667 15.4167C31.6667 23.9313 24.5781 30.8333 15.8333 30.8333C7.08858 30.8333 0 23.9313 0 15.4167C0 6.90204 7.08858 0 15.8333 0ZM15.8333 6.16667C15.4134 6.16667 15.0107 6.32909 14.7137 6.61821C14.4168 6.90733 14.25 7.29946 14.25 7.70833V15.4167C14.2501 15.8255 14.417 16.2176 14.7139 16.5066L19.4639 21.1316C19.7625 21.4125 20.1625 21.5678 20.5776 21.5643C20.9928 21.5608 21.3899 21.3987 21.6835 21.1128C21.977 20.827 22.1435 20.4403 22.1472 20.0361C22.1508 19.6319 21.9912 19.2425 21.7027 18.9517L17.4167 14.7784V7.70833C17.4167 7.29946 17.2499 6.90733 16.9529 6.61821C16.656 6.32909 16.2533 6.16667 15.8333 6.16667Z" fill="#FF9D00"/>
</svg>
