<svg width="26" height="31" viewBox="0 0 26 31" fill="none" xmlns="http://www.w3.org/2000/svg">
<path d="M22.75 14.625H3.25V6.5H22.75M20.3125 24.375C19.666 24.375 19.046 24.1182 18.5889 23.6611C18.1318 23.204 17.875 22.584 17.875 21.9375C17.875 21.291 18.1318 20.671 18.5889 20.2139C19.046 19.7568 19.666 19.5 20.3125 19.5C20.959 19.5 21.579 19.7568 22.0361 20.2139C22.4932 20.671 22.75 21.291 22.75 21.9375C22.75 22.584 22.4932 23.204 22.0361 23.6611C21.579 24.1182 20.959 24.375 20.3125 24.375ZM5.6875 24.375C5.04103 24.375 4.42105 24.1182 3.96393 23.6611C3.50681 23.204 3.25 22.584 3.25 21.9375C3.25 21.291 3.50681 20.671 3.96393 20.2139C4.42105 19.7568 5.04103 19.5 5.6875 19.5C6.33397 19.5 6.95395 19.7568 7.41107 20.2139C7.86819 20.671 8.125 21.291 8.125 21.9375C8.125 22.584 7.86819 23.204 7.41107 23.6611C6.95395 24.1182 6.33397 24.375 5.6875 24.375ZM0 22.75C0 24.18 0.63375 25.4637 1.625 26.3575V29.25C1.625 29.681 1.79621 30.0943 2.10095 30.399C2.4057 30.7038 2.81902 30.875 3.25 30.875H4.875C5.30598 30.875 5.7193 30.7038 6.02405 30.399C6.32879 30.0943 6.5 29.681 6.5 29.25V27.625H19.5V29.25C19.5 29.681 19.6712 30.0943 19.976 30.399C20.2807 30.7038 20.694 30.875 21.125 30.875H22.75C23.181 30.875 23.5943 30.7038 23.899 30.399C24.2038 30.0943 24.375 29.681 24.375 29.25V26.3575C25.3662 25.4637 26 24.18 26 22.75V6.5C26 0.8125 20.1825 0 13 0C5.8175 0 0 0.8125 0 6.5V22.75Z" fill="#FF9D00"/>
</svg>
