<svg width="93" height="93" viewBox="0 0 93 93" fill="none" xmlns="http://www.w3.org/2000/svg">
<g clip-path="url(#clip0_4878_4047)">
<path d="M72.0992 77.2476H15.4506V20.5991H49.4913L54.6411 15.4492H15.4506C14.0848 15.4492 12.7749 15.9918 11.8091 16.9576C10.8434 17.9234 10.3008 19.2333 10.3008 20.5991V77.2476C10.3008 78.6134 10.8434 79.9233 11.8091 80.8891C12.7749 81.8549 14.0848 82.3975 15.4506 82.3975H72.0992C73.465 82.3975 74.7749 81.8549 75.7407 80.8891C76.7065 79.9233 77.249 78.6134 77.249 77.2476V38.6236L72.0992 43.7735V77.2476Z" fill="white"/>
<path d="M86.3385 15.0364L77.6609 6.35887C77.2758 5.97271 76.8183 5.66633 76.3146 5.45728C75.8109 5.24823 75.2709 5.14062 74.7255 5.14062C74.1802 5.14063 73.6401 5.24823 73.1364 5.45728C72.6327 5.66633 72.1752 5.97271 71.7901 6.35887L36.4878 41.8672L33.6296 54.2526C33.5078 54.853 33.5206 55.4729 33.6671 56.0677C33.8135 56.6625 34.09 57.2175 34.4766 57.6927C34.8631 58.168 35.3502 58.5516 35.9028 58.8161C36.4553 59.0805 37.0597 59.2192 37.6722 59.2222C37.9889 59.2569 38.3083 59.2569 38.625 59.2222L51.1134 56.4671L86.3385 20.9072C86.7246 20.5221 87.031 20.0646 87.2401 19.5609C87.4491 19.0572 87.5567 18.5172 87.5567 17.9718C87.5567 17.4265 87.4491 16.8864 87.2401 16.3827C87.031 15.879 86.7246 15.4215 86.3385 15.0364ZM48.4355 51.7034L39.0112 53.7891L41.1999 44.4421L67.7732 17.6886L75.0345 24.9499L48.4355 51.7034ZM77.9442 22.0402L70.6829 14.7789L74.674 10.7105L81.9868 18.0233L77.9442 22.0402Z" fill="white"/>
</g>
<defs>
<clipPath id="clip0_4878_4047">
<rect width="92.6976" height="92.6976" fill="white"/>
</clipPath>
</defs>
</svg>
