<svg width="73" height="78" viewBox="0 0 73 78" fill="none" xmlns="http://www.w3.org/2000/svg">
<path d="M31.1696 51.872L25.685 46.426L31.1696 40.9414L36.6156 46.426L42.0615 40.9414L36.6156 35.4954L42.0615 30.0495L47.5461 35.4954L52.9921 30.0495L42.0615 19.1189L14.7544 46.426L25.685 57.3566L31.1696 51.872ZM0 66.6264L12.0507 54.6143L3.8624 46.426L42.0615 8.18829L50.2884 16.4152L55.6958 10.9306L50.2884 5.44598L55.6958 0L72.111 16.4152L66.665 21.8226L61.1804 16.4152L55.6958 21.8226L63.9227 30.0495L25.685 68.2486L17.4967 60.0603L0 77.5956V66.6264Z" fill="#ffffff"/>
</svg>
