<svg width="93" height="93" viewBox="0 0 93 93" fill="none" xmlns="http://www.w3.org/2000/svg">
<g clip-path="url(#clip0_4878_4054)">
<path d="M71.068 12.3597H58.7083C55.6184 12.3597 55.6184 18.5395 58.7083 18.5395H71.068C74.1579 18.5395 74.1579 24.7194 71.068 24.7194H58.7083C55.6184 24.7194 55.6184 30.8992 58.7083 30.8992H71.068C74.1579 30.8992 74.1579 37.079 71.068 37.079H58.7083C55.6184 37.079 55.6184 43.2589 58.7083 43.2589H71.068C74.1579 43.2589 74.1579 49.4387 71.068 49.4387H58.7083C55.6184 49.4387 55.6184 55.6186 58.7083 55.6186H71.068C74.1579 55.6186 74.1579 61.7984 71.068 61.7984H58.7083C55.6184 61.7984 55.6184 67.9782 58.7083 67.9782H71.068C74.1579 67.9782 74.1579 74.1581 71.068 74.1581H58.7083C55.6184 74.1581 55.6184 80.3379 58.7083 80.3379H71.068C74.1579 80.3379 74.1579 86.5177 71.068 86.5177H58.7083C55.6184 86.5177 55.6184 92.6976 58.7083 92.6976H83.4277C86.5176 92.6976 86.5176 86.5177 86.5176 86.5177V6.17984C86.5176 6.17984 86.5176 0 83.4277 0H58.7083C55.6184 0 55.6184 6.17984 58.7083 6.17984H71.068C74.1579 6.17984 74.1579 12.3597 71.068 12.3597ZM36.4609 62.849C43.2587 58.7085 49.4386 65.0737 49.4386 71.0682C49.4386 74.8379 47.8936 78.1132 44.6183 79.5963C43.8149 83.675 44.8037 84.7874 45.7925 86.7031C46.7812 88.6807 44.3093 91.1526 42.2082 89.2369C40.416 87.5683 39.489 83.4278 39.5508 80.5233C34.9777 80.2761 30.899 76.3828 30.899 71.0682L29.3541 46.3488H26.2642L24.7192 71.0682C24.7192 75.8266 20.9495 80.3379 15.4494 80.3379C10.0112 80.3379 6.17969 76.321 6.17969 71.0682C6.17969 65.1973 12.3595 58.7085 19.5899 62.849C20.0843 63.3434 24.7192 0 27.8091 0C30.899 0 36.4609 62.849 36.4609 62.849ZM15.4494 66.4333C12.3595 66.4333 10.8146 67.9782 10.8146 71.0682C10.8146 74.1581 12.3595 75.703 15.4494 75.703C18.5394 75.703 20.0843 72.6131 20.0843 71.0682C20.0843 67.9782 18.5394 66.4333 15.4494 66.4333ZM40.1688 66.4333C37.0789 66.4333 35.5339 67.9782 35.5339 71.0682C35.5339 72.6131 37.0789 75.703 40.1688 75.703C43.2587 75.703 44.8037 74.1581 44.8037 71.0682C44.8037 67.9782 43.2587 66.4333 40.1688 66.4333Z" fill="white"/>
</g>
<defs>
<clipPath id="clip0_4878_4054">
<rect width="92.6976" height="92.6976" fill="white"/>
</clipPath>
</defs>
</svg>
