<svg width="93" height="93" viewBox="0 0 93 93" fill="none" xmlns="http://www.w3.org/2000/svg">
<path fill-rule="evenodd" clip-rule="evenodd" d="M19.3107 19.3146C19.3107 17.2659 20.1246 15.3011 21.5733 13.8524C23.022 12.4037 24.9868 11.5898 27.0355 11.5898H65.6595C67.7083 11.5898 69.6731 12.4037 71.1218 13.8524C72.5705 15.3011 73.3843 17.2659 73.3843 19.3146V23.177H77.2467C78.2711 23.177 79.2535 23.584 79.9779 24.3083C80.7022 25.0327 81.1091 26.0151 81.1091 27.0394C81.1091 28.0638 80.7022 29.0462 79.9779 29.7706C79.2535 30.4949 78.2711 30.9018 77.2467 30.9018V73.3882C78.2711 73.3882 79.2535 73.7952 79.9779 74.5195C80.7022 75.2438 81.1091 76.2263 81.1091 77.2506C81.1091 78.275 80.7022 79.2574 79.9779 79.9818C79.2535 80.7061 78.2711 81.113 77.2467 81.113H15.4483C14.424 81.113 13.4415 80.7061 12.7172 79.9818C11.9929 79.2574 11.5859 78.275 11.5859 77.2506C11.5859 76.2263 11.9929 75.2438 12.7172 74.5195C13.4415 73.7952 14.424 73.3882 15.4483 73.3882V30.9018C14.424 30.9018 13.4415 30.4949 12.7172 29.7706C11.9929 29.0462 11.5859 28.0638 11.5859 27.0394C11.5859 26.0151 11.9929 25.0327 12.7172 24.3083C13.4415 23.584 14.424 23.177 15.4483 23.177H19.3107V19.3146ZM65.6595 19.3146V23.177H27.0355V19.3146H65.6595ZM69.5219 30.9018V73.3882H56.0035V63.7322C56.0035 61.1713 54.9862 58.7153 53.1754 56.9044C51.3645 55.0936 48.9085 54.0762 46.3475 54.0762C43.7866 54.0762 41.3306 55.0936 39.5197 56.9044C37.7089 58.7153 36.6915 61.1713 36.6915 63.7322V73.3882H23.1731V30.9018H69.5219ZM46.3475 61.801C46.8597 61.801 47.3509 62.0045 47.7131 62.3667C48.0753 62.7288 48.2787 63.2201 48.2787 63.7322V73.3882H44.4163V63.7322C44.4163 63.2201 44.6198 62.7288 44.982 62.3667C45.3441 62.0045 45.8353 61.801 46.3475 61.801ZM30.8979 50.2138C31.9223 50.2138 32.9047 50.6208 33.6291 51.3451C34.3534 52.0695 34.7603 53.0519 34.7603 54.0762V57.9386C34.7603 58.963 34.3534 59.9454 33.6291 60.6698C32.9047 61.3941 31.9223 61.801 30.8979 61.801C29.8736 61.801 28.8911 61.3941 28.1668 60.6698C27.4425 59.9454 27.0355 58.963 27.0355 57.9386V54.0762C27.0355 53.0519 27.4425 52.0695 28.1668 51.3451C28.8911 50.6208 29.8736 50.2138 30.8979 50.2138ZM61.7971 50.2138C62.7432 50.214 63.6562 50.5613 64.3632 51.1899C65.0702 51.8186 65.5218 52.6848 65.6325 53.6243L65.6595 54.0762V57.9386C65.6584 58.9231 65.2815 59.87 64.6057 60.5858C63.9299 61.3016 63.0062 61.7324 62.0235 61.7901C61.0407 61.8478 60.073 61.5281 59.3181 60.8962C58.5632 60.2644 58.078 59.3681 57.9618 58.3905L57.9347 57.9386V54.0762C57.9347 53.0519 58.3417 52.0695 59.066 51.3451C59.7903 50.6208 60.7728 50.2138 61.7971 50.2138ZM30.8979 34.7642C31.844 34.7644 32.7571 35.1117 33.464 35.7403C34.171 36.369 34.6226 37.2352 34.7333 38.1747L34.7603 38.6266V42.489C34.7592 43.4735 34.3823 44.4204 33.7065 45.1362C33.0307 45.8521 32.107 46.2828 31.1243 46.3405C30.1415 46.3982 29.1738 46.0785 28.4189 45.4466C27.664 44.8148 27.1788 43.9185 27.0626 42.9409L27.0355 42.489V38.6266C27.0355 37.6023 27.4425 36.6199 28.1668 35.8955C28.8911 35.1712 29.8736 34.7642 30.8979 34.7642ZM46.3475 34.7642C47.2936 34.7644 48.2066 35.1117 48.9136 35.7403C49.6206 36.369 50.0722 37.2352 50.1829 38.1747L50.2099 38.6266V42.489C50.2088 43.4735 49.8319 44.4204 49.1561 45.1362C48.4803 45.8521 47.5566 46.2828 46.5739 46.3405C45.5911 46.3982 44.6234 46.0785 43.8685 45.4466C43.1136 44.8148 42.6284 43.9185 42.5122 42.9409L42.4851 42.489V38.6266C42.4851 37.6023 42.8921 36.6199 43.6164 35.8955C44.3407 35.1712 45.3232 34.7642 46.3475 34.7642ZM61.7971 34.7642C62.8215 34.7642 63.8039 35.1712 64.5283 35.8955C65.2526 36.6199 65.6595 37.6023 65.6595 38.6266V42.489C65.6595 43.5134 65.2526 44.4958 64.5283 45.2202C63.8039 45.9445 62.8215 46.3514 61.7971 46.3514C60.7728 46.3514 59.7903 45.9445 59.066 45.2202C58.3417 44.4958 57.9347 43.5134 57.9347 42.489V38.6266C57.9347 37.6023 58.3417 36.6199 59.066 35.8955C59.7903 35.1712 60.7728 34.7642 61.7971 34.7642Z" fill="white"/>
</svg>
