<svg width="93" height="93" viewBox="0 0 93 93" fill="none" xmlns="http://www.w3.org/2000/svg">
<path d="M46.3491 19.3107C44.8126 19.3107 43.339 19.9211 42.2524 21.0076C41.1659 22.0942 40.5555 23.5678 40.5555 25.1043C40.5555 26.6409 41.1659 28.1145 42.2524 29.201C43.339 30.2875 44.8126 30.8979 46.3491 30.8979C47.8857 30.8979 49.3593 30.2875 50.4458 29.201C51.5323 28.1145 52.1427 26.6409 52.1427 25.1043C52.1427 23.5678 51.5323 22.0942 50.4458 21.0076C49.3593 19.9211 47.8857 19.3107 46.3491 19.3107ZM32.8307 25.1043C32.8307 23.3291 33.1804 21.5712 33.8598 19.9311C34.5391 18.2909 35.5349 16.8007 36.7902 15.5454C38.0455 14.2901 39.5357 13.2943 41.1759 12.615C42.816 11.9356 44.5739 11.5859 46.3491 11.5859C48.1244 11.5859 49.8823 11.9356 51.5224 12.615C53.1625 13.2943 54.6528 14.2901 55.9081 15.5454C57.1634 16.8007 58.1591 18.2909 58.8385 19.9311C59.5179 21.5712 59.8675 23.3291 59.8675 25.1043C59.8675 28.6896 58.4433 32.1281 55.9081 34.6633C53.3729 37.1985 49.9344 38.6227 46.3491 38.6227C42.7638 38.6227 39.3254 37.1985 36.7902 34.6633C34.255 32.1281 32.8307 28.6896 32.8307 25.1043ZM19.3123 30.8979C18.288 30.8979 17.3056 31.3049 16.5812 32.0292C15.8569 32.7535 15.4499 33.736 15.4499 34.7603C15.4499 35.7847 15.8569 36.7671 16.5812 37.4915C17.3056 38.2158 18.288 38.6227 19.3123 38.6227C20.3367 38.6227 21.3191 38.2158 22.0435 37.4915C22.7678 36.7671 23.1747 35.7847 23.1747 34.7603C23.1747 33.736 22.7678 32.7535 22.0435 32.0292C21.3191 31.3049 20.3367 30.8979 19.3123 30.8979ZM7.72514 34.7603C7.72514 31.6872 8.94593 28.74 11.119 26.5669C13.292 24.3939 16.2392 23.1731 19.3123 23.1731C22.3855 23.1731 25.3327 24.3939 27.5057 26.5669C29.6787 28.74 30.8995 31.6872 30.8995 34.7603C30.8995 37.8335 29.6787 40.7807 27.5057 42.9537C25.3327 45.1267 22.3855 46.3475 19.3123 46.3475C16.2392 46.3475 13.292 45.1267 11.119 42.9537C8.94593 40.7807 7.72514 37.8335 7.72514 34.7603ZM69.5235 34.7603C69.5235 33.736 69.9305 32.7535 70.6548 32.0292C71.3791 31.3049 72.3616 30.8979 73.3859 30.8979C74.4103 30.8979 75.3927 31.3049 76.1171 32.0292C76.8414 32.7535 77.2483 33.736 77.2483 34.7603C77.2483 35.7847 76.8414 36.7671 76.1171 37.4915C75.3927 38.2158 74.4103 38.6227 73.3859 38.6227C72.3616 38.6227 71.3791 38.2158 70.6548 37.4915C69.9305 36.7671 69.5235 35.7847 69.5235 34.7603ZM73.3859 23.1731C70.3128 23.1731 67.3656 24.3939 65.1925 26.5669C63.0195 28.74 61.7987 31.6872 61.7987 34.7603C61.7987 37.8335 63.0195 40.7807 65.1925 42.9537C67.3656 45.1267 70.3128 46.3475 73.3859 46.3475C76.4591 46.3475 79.4063 45.1267 81.5793 42.9537C83.7523 40.7807 84.9731 37.8335 84.9731 34.7603C84.9731 31.6872 83.7523 28.74 81.5793 26.5669C79.4063 24.3939 76.4591 23.1731 73.3859 23.1731ZM30.8995 56.0035C30.8995 50.6734 35.2254 46.3475 40.5555 46.3475H52.1427C57.4728 46.3475 61.7987 50.6734 61.7987 56.0035V65.6595C61.7987 69.757 60.171 73.6867 57.2737 76.584C54.3763 79.4814 50.4466 81.1091 46.3491 81.1091C42.2516 81.1091 38.322 79.4814 35.4246 76.584C32.5273 73.6867 30.8995 69.757 30.8995 65.6595V56.0035ZM40.5555 54.0723C40.0434 54.0723 39.5521 54.2758 39.19 54.638C38.8278 55.0001 38.6243 55.4913 38.6243 56.0035V65.6595C38.6243 67.7083 39.4382 69.6731 40.8869 71.1218C42.3356 72.5705 44.3004 73.3843 46.3491 73.3843C48.3979 73.3843 50.3627 72.5705 51.8114 71.1218C53.2601 69.6731 54.0739 67.7083 54.0739 65.6595V56.0035C54.0739 55.4913 53.8705 55.0001 53.5083 54.638C53.1461 54.2758 52.6549 54.0723 52.1427 54.0723H40.5555ZM23.1747 56.0035C23.1747 53.7711 23.5919 51.639 24.3644 49.6846L14.8551 52.2338C12.3829 52.8965 10.2749 54.5137 8.99445 56.7299C7.71398 58.9461 7.3658 61.58 8.02641 64.0528L9.52502 69.6533C10.0503 71.6133 10.9565 73.4506 12.192 75.0603C13.4274 76.6701 14.9678 78.0207 16.7253 79.035C18.4828 80.0493 20.4229 80.7075 22.4347 80.9719C24.4466 81.2363 26.4909 81.1018 28.4508 80.5761L28.5821 80.5375C26.8001 78.4146 25.4135 75.9892 24.488 73.3766C22.7809 73.3853 21.1191 72.8284 19.7621 71.7928C18.4051 70.7572 17.4293 69.3013 16.9872 67.6525L15.4886 62.0521C15.3565 61.5573 15.4263 61.0303 15.6827 60.587C15.9392 60.1438 16.3611 59.8205 16.8559 59.6883L23.1747 57.9888V56.0035ZM64.2398 80.5684L64.1162 80.5452C65.8774 78.4363 67.2756 76.0185 68.2103 73.3766C69.916 73.3836 71.5761 72.8259 72.9315 71.7905C74.287 70.755 75.2616 69.3 75.7034 67.6525L77.1943 62.0521C77.3263 61.5573 77.2565 61.0303 77.0001 60.587C76.7437 60.1438 76.3217 59.8205 75.827 59.6883L69.5235 57.9965V56.0035C69.5235 53.7711 69.1064 51.6467 68.3416 49.6846L77.8277 52.2338C80.2999 52.8965 82.4079 54.5137 83.6884 56.7299C84.9688 58.9461 85.317 61.58 84.6564 64.0528L83.1578 69.6533C82.6325 71.6133 81.7263 73.4506 80.4909 75.0603C79.2554 76.6701 77.715 78.0207 75.9575 79.035C74.2 80.0493 72.2599 80.7075 70.2481 80.9719C68.2362 81.2363 66.1919 81.1018 64.232 80.5761" fill="white"/>
</svg>
