<svg width="85" height="78" viewBox="0 0 85 78" fill="none" xmlns="http://www.w3.org/2000/svg">
<path d="M81.1104 38.624V69.5232C81.1104 71.5719 80.2965 73.5368 78.8478 74.9854C77.3992 76.4341 75.4343 77.248 73.3856 77.248H11.5872C9.53845 77.248 7.57362 76.4341 6.12494 74.9854C4.67626 73.5368 3.8624 71.5719 3.8624 69.5232V38.624C2.83803 38.624 1.85561 38.2171 1.13127 37.4927C0.40693 36.7684 0 35.786 0 34.7616V23.1744C0 21.1256 0.813861 19.1608 2.26254 17.7121C3.71122 16.2635 5.67605 15.4496 7.7248 15.4496H19.9686C19.5321 14.2087 19.31 12.9026 19.312 11.5872C19.312 8.51408 20.5328 5.56683 22.7058 3.39381C24.8788 1.22079 27.8261 0 30.8992 0C34.7616 0 38.1605 1.9312 40.2848 4.78937V4.75075L42.4864 7.7248L44.688 4.75075V4.78937C46.8123 1.9312 50.2112 0 54.0736 0C57.1467 0 60.094 1.22079 62.267 3.39381C64.44 5.56683 65.6608 8.51408 65.6608 11.5872C65.6627 12.9026 65.4407 14.2087 65.0042 15.4496H77.248C79.2967 15.4496 81.2616 16.2635 82.7102 17.7121C84.1589 19.1608 84.9728 21.1256 84.9728 23.1744V34.7616C84.9728 35.786 84.5659 36.7684 83.8415 37.4927C83.1172 38.2171 82.1348 38.624 81.1104 38.624ZM11.5872 69.5232H38.624V38.624H11.5872V69.5232ZM73.3856 69.5232V38.624H46.3488V69.5232H73.3856ZM30.8992 7.7248C29.8748 7.7248 28.8924 8.13173 28.1681 8.85607C27.4437 9.58041 27.0368 10.5628 27.0368 11.5872C27.0368 12.6116 27.4437 13.594 28.1681 14.3183C28.8924 15.0427 29.8748 15.4496 30.8992 15.4496C31.9236 15.4496 32.906 15.0427 33.6303 14.3183C34.3547 13.594 34.7616 12.6116 34.7616 11.5872C34.7616 10.5628 34.3547 9.58041 33.6303 8.85607C32.906 8.13173 31.9236 7.7248 30.8992 7.7248ZM54.0736 7.7248C53.0492 7.7248 52.0668 8.13173 51.3425 8.85607C50.6181 9.58041 50.2112 10.5628 50.2112 11.5872C50.2112 12.6116 50.6181 13.594 51.3425 14.3183C52.0668 15.0427 53.0492 15.4496 54.0736 15.4496C55.098 15.4496 56.0804 15.0427 56.8047 14.3183C57.5291 13.594 57.936 12.6116 57.936 11.5872C57.936 10.5628 57.5291 9.58041 56.8047 8.85607C56.0804 8.13173 55.098 7.7248 54.0736 7.7248ZM7.7248 23.1744V30.8992H38.624V23.1744H7.7248ZM46.3488 23.1744V30.8992H77.248V23.1744H46.3488Z" fill="white"/>
</svg>
